{
  "accessors": [
    {
      "bufferView": 2,
      "componentType": 5126,
      "count": 11603,
      "max": [
        1.8679702281951904,
        3.704749584197998,
        0.9860696792602539
      ],
      "min": [
        -1.8556509017944336,
        -2.4032092094421387,
        -0.794291615486145
      ],
      "type": "VEC3"
    },
    {
      "bufferView": 2,
      "byteOffset": 139236,
      "componentType": 5126,
      "count": 11603,
      "max": [
        1.0,
        1.0,
        1.0
      ],
      "min": [
        -1.0,
        -1.0,
        -1.0
      ],
      "type": "VEC3"
    },
    {
      "bufferView": 3,
      "componentType": 5126,
      "count": 11603,
      "max": [
        1.0,
        1.0,
        1.0,
        1.0
      ],
      "min": [
        -1.0,
        -1.0,
        -1.0,
        -1.0
      ],
      "type": "VEC4"
    },
    {
      "bufferView": 1,
      "componentType": 5126,
      "count": 11603,
      "max": [
        0.98193359375,
        0.998046875
      ],
      "min": [
        0.001953125,
        0.0107421875
      ],
      "type": "VEC2"
    },
    {
      "bufferView": 1,
      "byteOffset": 92824,
      "componentType": 5126,
      "count": 11603,
      "max": [
        0.98193359375,
        0.998046875
      ],
      "min": [
        0.001953125,
        0.0107421875
      ],
      "type": "VEC2"
    },
    {
      "bufferView": 1,
      "byteOffset": 185648,
      "componentType": 5126,
      "count": 11603,
      "max": [
        0.98193359375,
        0.998046875
      ],
      "min": [
        0.001953125,
        0.0107421875
      ],
      "type": "VEC2"
    },
    {
      "bufferView": 1,
      "byteOffset": 278472,
      "componentType": 5126,
      "count": 11603,
      "max": [
        0.98193359375,
        0.998046875
      ],
      "min": [
        0.001953125,
        0.0107421875
      ],
      "type": "VEC2"
    },
    {
      "bufferView": 1,
      "byteOffset": 371296,
      "componentType": 5126,
      "count": 11603,
      "max": [
        0.98193359375,
        0.998046875
      ],
      "min": [
        0.001953125,
        0.0107421875
      ],
      "type": "VEC2"
    },
    {
      "bufferView": 0,
      "componentType": 5125,
      "count": 38112,
      "type": "SCALAR"
    },
    {
      "bufferView": 2,
      "byteOffset": 278472,
      "componentType": 5126,
      "count": 65532,
      "max": [
        8.773144721984863,
        7.650783061981201,
        2.5761992931365967
      ],
      "min": [
        -7.395174980163574,
        -12.910852432250977,
        -3.198390245437622
      ],
      "type": "VEC3"
    },
    {
      "bufferView": 2,
      "byteOffset": 1064856,
      "componentType": 5126,
      "count": 65532,
      "max": [
        1.0,
        1.0,
        1.0
      ],
      "min": [
        -1.0,
        -1.0,
        -1.0
      ],
      "type": "VEC3"
    },
    {
      "bufferView": 3,
      "byteOffset": 185648,
      "componentType": 5126,
      "count": 65532,
      "max": [
        1.0,
        1.0,
        1.0,
        1.0
      ],
      "min": [
        -1.0,
        -1.0,
        -1.0,
        -1.0
      ],
      "type": "VEC4"
    },
    {
      "bufferView": 1,
      "byteOffset": 464120,
      "componentType": 5126,
      "count": 65532,
      "max": [
        0.984375,
        0.9982795715332031
      ],
      "min": [
        0.001953125,
        0.0087890625
      ],
      "type": "VEC2"
    },
    {
      "bufferView": 1,
      "byteOffset": 988376,
      "componentType": 5126,
      "count": 65532,
      "max": [
        0.984375,
        0.9982795715332031
      ],
      "min": [
        0.001953125,
        0.0087890625
      ],
      "type": "VEC2"
    },
    {
      "bufferView": 1,
      "byteOffset": 1512632,
      "componentType": 5126,
      "count": 65532,
      "max": [
        0.984375,
        0.9982795715332031
      ],
      "min": [
        0.001953125,
        0.0087890625
      ],
      "type": "VEC2"
    },
    {
      "bufferView": 1,
      "byteOffset": 2036888,
      "componentType": 5126,
      "count": 65532,
      "max": [
        0.984375,
        0.9982795715332031
      ],
      "min": [
        0.001953125,
        0.0087890625
      ],
      "type": "VEC2"
    },
    {
      "bufferView": 1,
      "byteOffset": 2561144,
      "componentType": 5126,
      "count": 65532,
      "max": [
        0.984375,
        0.9982795715332031
      ],
      "min": [
        0.001953125,
        0.0087890625
      ],
      "type": "VEC2"
    },
    {
      "bufferView": 0,
      "byteOffset": 152448,
      "componentType": 5125,
      "count": 199173,
      "type": "SCALAR"
    },
    {
      "bufferView": 2,
      "byteOffset": 1851240,
      "componentType": 5126,
      "count": 12046,
      "max": [
        3.4365952014923096,
        5.159294605255127,
        2.6410350799560547
      ],
      "min": [
        -3.5701491832733154,
        -9.623631477355957,
        -1.493070363998413
      ],
      "type": "VEC3"
    },
    {
      "bufferView": 2,
      "byteOffset": 1995792,
      "componentType": 5126,
      "count": 12046,
      "max": [
        1.0,
        1.0,
        1.0
      ],
      "min": [
        -1.0,
        -1.0,
        -1.0
      ],
      "type": "VEC3"
    },
    {
      "bufferView": 3,
      "byteOffset": 1234160,
      "componentType": 5126,
      "count": 12046,
      "max": [
        1.0,
        1.0,
        1.0,
        1.0
      ],
      "min": [
        -1.0,
        -1.0,
        -1.0,
        -1.0
      ],
      "type": "VEC4"
    },
    {
      "bufferView": 1,
      "byteOffset": 3085400,
      "componentType": 5126,
      "count": 12046,
      "max": [
        0.982421875,
        0.998046875
      ],
      "min": [
        0.001953125,
        0.01318359375
      ],
      "type": "VEC2"
    },
    {
      "bufferView": 1,
      "byteOffset": 3181768,
      "componentType": 5126,
      "count": 12046,
      "max": [
        0.982421875,
        0.998046875
      ],
      "min": [
        0.001953125,
        0.01318359375
      ],
      "type": "VEC2"
    },
    {
      "bufferView": 1,
      "byteOffset": 3278136,
      "componentType": 5126,
      "count": 12046,
      "max": [
        0.982421875,
        0.998046875
      ],
      "min": [
        0.001953125,
        0.01318359375
      ],
      "type": "VEC2"
    },
    {
      "bufferView": 1,
      "byteOffset": 3374504,
      "componentType": 5126,
      "count": 12046,
      "max": [
        0.982421875,
        0.998046875
      ],
      "min": [
        0.001953125,
        0.01318359375
      ],
      "type": "VEC2"
    },
    {
      "bufferView": 1,
      "byteOffset": 3470872,
      "componentType": 5126,
      "count": 12046,
      "max": [
        0.982421875,
        0.998046875
      ],
      "min": [
        0.001953125,
        0.01318359375
      ],
      "type": "VEC2"
    },
    {
      "bufferView": 0,
      "byteOffset": 949140,
      "componentType": 5125,
      "count": 40203,
      "type": "SCALAR"
    },
    {
      "bufferView": 2,
      "byteOffset": 2140344,
      "componentType": 5126,
      "count": 1252,
      "max": [
        0.8152401447296143,
        4.968358993530273,
        1.5951316356658936
      ],
      "min": [
        -0.9638230800628662,
        -1.3909971714019775,
        0.05501413345336914
      ],
      "type": "VEC3"
    },
    {
      "bufferView": 2,
      "byteOffset": 2155368,
      "componentType": 5126,
      "count": 1252,
      "max": [
        0.9996619820594788,
        0.9635027050971985,
        0.5668899416923523
      ],
      "min": [
        -0.9998000264167786,
        -0.4178740382194519,
        -0.9994000196456909
      ],
      "type": "VEC3"
    },
    {
      "bufferView": 3,
      "byteOffset": 1426896,
      "componentType": 5126,
      "count": 1252,
      "max": [
        0.8724806308746338,
        1.0,
        0.9996619820594788,
        1.0
      ],
      "min": [
        -0.9998652935028076,
        -0.2928376793861389,
        -0.9993943572044373,
        -1.0
      ],
      "type": "VEC4"
    },
    {
      "bufferView": 1,
      "byteOffset": 3567240,
      "componentType": 5126,
      "count": 1252,
      "max": [
        0.93115234375,
        0.8507080078125
      ],
      "min": [
        0.127197265625,
        0.0595703125
      ],
      "type": "VEC2"
    },
    {
      "bufferView": 1,
      "byteOffset": 3577256,
      "componentType": 5126,
      "count": 1252,
      "max": [
        0.93115234375,
        0.8507080078125
      ],
      "min": [
        0.127197265625,
        0.0595703125
      ],
      "type": "VEC2"
    },
    {
      "bufferView": 1,
      "byteOffset": 3587272,
      "componentType": 5126,
      "count": 1252,
      "max": [
        0.93115234375,
        0.8507080078125
      ],
      "min": [
        0.127197265625,
        0.0595703125
      ],
      "type": "VEC2"
    },
    {
      "bufferView": 1,
      "byteOffset": 3597288,
      "componentType": 5126,
      "count": 1252,
      "max": [
        0.93115234375,
        0.8507080078125
      ],
      "min": [
        0.127197265625,
        0.0595703125
      ],
      "type": "VEC2"
    },
    {
      "bufferView": 1,
      "byteOffset": 3607304,
      "componentType": 5126,
      "count": 1252,
      "max": [
        0.93115234375,
        0.8507080078125
      ],
      "min": [
        0.127197265625,
        0.0595703125
      ],
      "type": "VEC2"
    },
    {
      "bufferView": 0,
      "byteOffset": 1109952,
      "componentType": 5125,
      "count": 5691,
      "type": "SCALAR"
    }
  ],
  "asset": {
    "extras": {
      "author": "xlisov (https://sketchfab.com/xlisov74)",
      "license": "CC-BY-NC-4.0 (http://creativecommons.org/licenses/by-nc/4.0/)",
      "source": "https://sketchfab.com/3d-models/ba-mi-24k-d4f78bd2cf054d9da148363251ea0e69",
      "title": "[BA] Mi-24K"
    },
    "generator": "Sketchfab-16.74.0",
    "version": "2.0"
  },
  "bufferViews": [
    {
      "buffer": 0,
      "byteLength": 1132716,
      "name": "floatBufferViews",
      "target": 34963
    },
    {
      "buffer": 0,
      "byteLength": 3617320,
      "byteOffset": 1132716,
      "byteStride": 8,
      "name": "floatBufferViews",
      "target": 34962
    },
    {
      "buffer": 0,
      "byteLength": 2170392,
      "byteOffset": 4750036,
      "byteStride": 12,
      "name": "floatBufferViews",
      "target": 34962
    },
    {
      "buffer": 0,
      "byteLength": 1446928,
      "byteOffset": 6920428,
      "byteStride": 16,
      "name": "floatBufferViews",
      "target": 34962
    }
  ],
  "buffers": [
    {
      "byteLength": 8367356,
      "uri": "scene.bin"
    }
  ],
  "extensionsUsed": [
    "KHR_materials_specular"
  ],
  "images": [
    {
      "uri": "textures/body_baseColor.png"
    },
    {
      "uri": "textures/body_metallicRoughness.png"
    },
    {
      "uri": "textures/body_normal.png"
    },
    {
      "uri": "textures/body_specularf0.png"
    },
    {
      "uri": "textures/glass_baseColor.png"
    }
  ],
  "materials": [
    {
      "doubleSided": true,
      "extensions": {
        "KHR_materials_specular": {
          "specularColorFactor": [
            1.0,
            1.0,
            1.0
          ],
          "specularFactor": 1.0,
          "specularTexture": {
            "index": 3,
            "texCoord": 3
          }
        }
      },
      "name": "body",
      "normalTexture": {
        "index": 2,
        "texCoord": 2
      },
      "pbrMetallicRoughness": {
        "baseColorTexture": {
          "index": 0
        },
        "metallicRoughnessTexture": {
          "index": 1,
          "texCoord": 1
        },
        "roughnessFactor": 0.5
      }
    },
    {
      "alphaMode": "BLEND",
      "doubleSided": true,
      "extensions": {
        "KHR_materials_specular": {
          "specularColorFactor": [
            1.0,
            1.0,
            1.0
          ],
          "specularFactor": 1.0,
          "specularTexture": {
            "index": 3
          }
        }
      },
      "name": "glass",
      "normalTexture": {
        "index": 2
      },
      "pbrMetallicRoughness": {
        "baseColorTexture": {
          "index": 4
        },
        "metallicRoughnessTexture": {
          "index": 1
        },
        "roughnessFactor": 0.5
      }
    }
  ],
  "meshes": [
    {
      "name": "Object_0",
      "primitives": [
        {
          "attributes": {
            "NORMAL": 1,
            "POSITION": 0,
            "TANGENT": 2,
            "TEXCOORD_0": 3,
            "TEXCOORD_1": 4,
            "TEXCOORD_2": 5,
            "TEXCOORD_3": 6,
            "TEXCOORD_4": 7
          },
          "indices": 8,
          "material": 0,
          "mode": 4
        }
      ]
    },
    {
      "name": "Object_1",
      "primitives": [
        {
          "attributes": {
            "NORMAL": 10,
            "POSITION": 9,
            "TANGENT": 11,
            "TEXCOORD_0": 12,
            "TEXCOORD_1": 13,
            "TEXCOORD_2": 14,
            "TEXCOORD_3": 15,
            "TEXCOORD_4": 16
          },
          "indices": 17,
          "material": 0,
          "mode": 4
        }
      ]
    },
    {
      "name": "Object_2",
      "primitives": [
        {
          "attributes": {
            "NORMAL": 19,
            "POSITION": 18,
            "TANGENT": 20,
            "TEXCOORD_0": 21,
            "TEXCOORD_1": 22,
            "TEXCOORD_2": 23,
            "TEXCOORD_3": 24,
            "TEXCOORD_4": 25
          },
          "indices": 26,
          "material": 0,
          "mode": 4
        }
      ]
    },
    {
      "name": "Object_3",
      "primitives": [
        {
          "attributes": {
            "NORMAL": 28,
            "POSITION": 27,
            "TANGENT": 29,
            "TEXCOORD_0": 30,
            "TEXCOORD_1": 31,
            "TEXCOORD_2": 32,
            "TEXCOORD_3": 33,
            "TEXCOORD_4": 34
          },
          "indices": 35,
          "material": 1,
          "mode": 4
        }
      ]
    }
  ],
  "nodes": [
    {
      "children": [
        1
      ],
      "matrix": [
        2.220446049250313e-16,
        -2.220446049250313e-16,
        1.0,
        0.0,
        1.0,
        4.930380657631324e-32,
        -2.220446049250313e-16,
        0.0,
        0.0,
        1.0,
        2.220446049250313e-16,
        0.0,
        0.0,
        0.0,
        0.0,
        1.0
      ],
      "name": "Sketchfab_model"
    },
    {
      "children": [
        2
      ],
      "name": "root"
    },
    {
      "children": [
        3,
        5
      ],
      "matrix": [
        1.0,
        0.0,
        0.0,
        0.0,
        0.0,
        2.220446049250313e-16,
        1.0,
        0.0,
        0.0,
        -1.0,
        2.220446049250313e-16,
        0.0,
        0.0,
        0.0,
        0.0,
        1.0
      ],
      "name": "GLTF_SceneRootNode"
    },
    {
      "children": [
        4
      ],
      "matrix": [
        0.009999999776482582,
        0.0,
        0.0,
        0.0,
        0.0,
        0.0,
        0.009999999776482582,
        0.0,
        0.0,
        -0.009999999776482582,
        0.0,
        0.0,
        1.0563147952780128e-05,
        0.005810041446238756,
        0.0014116019010543823,
        1.0
      ],
      "name": "open_0"
    },
    {
      "mesh": 0,
      "name": "Object_4"
    },
    {
      "children": [
        6,
        7,
        8
      ],
      "matrix": [
        0.009999999776482582,
        0.0,
        0.0,
        0.0,
        0.0,
        0.0,
        0.009999999776482582,
        0.0,
        0.0,
        -0.009999999776482582,
        0.0,
        0.0,
        0.000639932113699615,
        0.025867240503430367,
        0.008271410129964352,
        1.0
      ],
      "name": "Chassis_1"
    },
    {
      "mesh": 1,
      "name": "Object_6"
    },
    {
      "mesh": 2,
      "name": "Object_7"
    },
    {
      "mesh": 3,
      "name": "Object_8"
    }
  ],
  "samplers": [
    {
      "magFilter": 9729,
      "minFilter": 9987,
      "wrapS": 10497,
      "wrapT": 10497
    }
  ],
  "scene": 0,
  "scenes": [
    {
      "name": "Sketchfab_Scene",
      "nodes": [
        0
      ]
    }
  ],
  "textures": [
    {
      "sampler": 0,
      "source": 0
    },
    {
      "sampler": 0,
      "source": 1
    },
    {
      "sampler": 0,
      "source": 2
    },
    {
      "sampler": 0,
      "source": 3
    },
    {
      "sampler": 0,
      "source": 4
    }
  ]
}
